<svg width="720" height="761" viewBox="0 0 720 761" fill="none" xmlns="http://www.w3.org/2000/svg">
<path d="M668.507 99.7135C669.556 101.58 670.396 103.557 671.013 105.607C681.202 138.632 705.08 240.051 691.302 314.038C664.79 456.395 477.417 612.403 378.517 552.756C303.262 507.369 283.663 339.791 339.443 228.943C417.587 73.6542 636.868 43.2215 668.507 99.7135Z" fill="#D4DDFA"/>
<path d="M225.92 53.5149C228.056 53.6549 230.171 54.0297 232.226 54.6324C265.458 64.1211 363.47 99.4732 417.941 151.404C522.75 251.322 551.19 493.476 447.227 543.785C368.121 582.066 217.012 507.016 154.581 399.773C67.1215 249.533 161.316 49.1888 225.92 53.5149Z" fill="#A5B2D3"/>
<path d="M451.023 247.713C453.128 248.109 455.182 248.735 457.149 249.58C489.001 262.993 619.266 402.04 667.103 460.139C725.06 581.885 667.336 657.238 558.082 694.69C474.949 723.187 387.685 696.857 338.594 582.889C269.822 423.229 381.381 234.613 451.023 247.713Z" fill="#1B326D"/>
<path d="M443.703 260.02C445.078 261.661 446.268 263.449 447.251 265.351C463.348 295.934 505.494 391.222 505.575 466.481C505.732 611.286 377 710 230.5 665C162.5 621 151.5 567.5 177.942 464.78C226.154 297.757 402.202 210.32 443.703 260.02Z" fill="#D4DDFA"/>
</svg>
