<svg width="631" height="467" viewBox="0 0 631 467" fill="none" xmlns="http://www.w3.org/2000/svg">
<g clip-path="url(#clip0_95_943)">
<path d="M571.371 464.838H437.577V460.736C437.577 457.174 438.994 453.759 441.514 451.24C444.035 448.722 447.454 447.307 451.018 447.307H557.93C561.495 447.307 564.914 448.722 567.434 451.24C569.955 453.759 571.371 457.174 571.371 460.736V464.838Z" fill="#A5B2D3"/>
<path d="M501.343 448.125L505.412 446.488C462.84 340.913 466.941 207.721 502.929 93.4663C507.203 80.2282 507.512 66.0304 503.816 52.6196C500.119 39.2088 492.58 27.1699 482.125 17.9842C461.237 -0.638998 432.44 -5.17577 406.967 6.14314C381.823 17.3176 378.357 36.7819 378.357 56.1514H382.744C382.744 35.4754 387.167 19.7395 408.75 10.1476C432.624 -0.460308 459.62 3.79452 479.204 21.2546C489.024 29.882 496.105 41.1893 499.577 53.7853C503.049 66.3812 502.759 79.7164 498.744 92.1502C462.342 207.724 458.481 341.831 501.343 448.125Z" fill="black"/>
<path d="M381.647 120.796C390.127 120.796 397.001 113.928 397.001 105.457C397.001 96.9849 390.127 90.1172 381.647 90.1172C373.168 90.1172 366.294 96.9849 366.294 105.457C366.294 113.928 373.168 120.796 381.647 120.796Z" fill="#E6E6E6"/>
<path d="M358.002 132.197V103.133H362.525V132.197C363.823 132.722 364.897 133.681 365.565 134.91C366.232 136.139 366.451 137.562 366.184 138.934C365.917 140.307 365.18 141.544 364.1 142.433C363.019 143.323 361.663 143.809 360.264 143.809C358.864 143.809 357.508 143.323 356.428 142.433C355.348 141.544 354.611 140.307 354.343 138.934C354.076 137.562 354.295 136.139 354.962 134.91C355.63 133.681 356.704 132.722 358.002 132.197Z" fill="#E6E6E6"/>
<path d="M336.136 80.804C336.143 74.1227 338.803 67.7173 343.532 62.9929C348.261 58.2686 354.672 55.6111 361.359 55.6035H403.033C409.722 55.6035 416.138 58.2586 420.868 62.9846C425.598 67.7106 428.256 74.1204 428.256 80.804C428.256 87.4876 425.598 93.8974 420.868 98.6234C416.138 103.349 409.722 106.004 403.033 106.004H361.359C354.672 105.997 348.261 103.339 343.532 98.615C338.803 93.8907 336.143 87.4852 336.136 80.804Z" fill="#A5B2D3"/>
<path d="M277.42 236.862C281.604 183.379 302.997 157.897 289.298 141.917C276.177 126.61 239.217 129.772 215.48 144.46C151.457 184.078 128.001 341.976 210.389 419.121C288.679 492.429 437.053 468.95 470.027 408.948C477.72 394.948 483.832 370.406 472.572 355.542C444.616 318.64 342.974 385.479 297.783 343.674C271.002 318.899 275.123 266.213 277.42 236.862Z" fill="#1B326D"/>
<path d="M326.36 210.291C324.805 211.006 323.59 212.298 322.975 213.894C322.359 215.49 322.391 217.262 323.063 218.835C323.205 219.152 323.373 219.458 323.565 219.747L309.823 238.079L316.68 248.319L332.787 221.173C333.929 220.284 334.743 219.042 335.104 217.642C335.464 216.242 335.351 214.762 334.781 213.433C334.45 212.679 333.973 211.999 333.378 211.43C332.783 210.861 332.082 210.414 331.315 210.116C330.547 209.818 329.729 209.673 328.905 209.691C328.082 209.709 327.27 209.888 326.516 210.22C326.464 210.243 326.412 210.266 326.36 210.291Z" fill="#FFB6B6"/>
<path d="M326.349 241.898C327.248 242.695 324.753 243.678 322.115 242.127C321.359 241.677 321.037 241.491 320.952 241.61C320.74 241.906 321.979 244.093 321.648 248.951C321.444 251.85 316.625 257.301 311.152 262.616C303.753 269.805 295.15 276.739 295.15 276.739L292.129 274.323L260.455 248.951L255.109 241.559C255.599 238.64 256.334 235.767 257.307 232.971C258.647 229.102 260.24 225.324 262.076 221.663C263.06 219.671 264.069 217.772 265.037 216.025L282.007 234.709L296.227 250.358C296.227 250.358 300.368 243.695 303.575 241.881C303.984 241.62 304.45 241.46 304.933 241.415C308.174 241.262 308.369 239.499 304.61 235.659C300.852 231.818 305.594 235.404 308.938 234.37C312.281 233.336 308.938 234.37 309.642 231.784C310.346 229.199 319.722 224.011 319.722 224.011L320.112 224.358L327.197 230.606L329.225 232.395C329.225 232.395 327.01 238.464 326.4 239.745C325.789 241.025 325.458 241.092 326.349 241.898Z" fill="#A5B2D3"/>
<path d="M513.116 359.658L513.461 350.308L477.527 344.527L477.017 358.327L513.116 359.658Z" fill="#FFB6B6"/>
<path d="M506.593 362.474L506.252 347.503L512.658 347.739L523 333.899C523.511 333.215 524.227 332.712 525.044 332.464C525.861 332.216 526.736 332.235 527.541 332.519C528.346 332.802 529.04 333.336 529.52 334.041C530 334.747 530.242 335.587 530.211 336.439L529.554 354.224L523.104 357.056L529.396 358.487L529.149 365.192L506.593 362.474Z" fill="#2F2E41"/>
<path d="M310.87 363.298L424.689 366.182C424.689 366.182 473.84 369.018 485.372 361.523L497.533 359.989L498.192 342.143C498.192 342.143 490.755 342.197 486.48 340.207C482.205 338.217 485.176 335.781 481.1 338.176C477.023 340.571 477.454 340.859 474.302 339.758C471.15 338.658 326.623 316.648 326.623 316.648L310.87 363.298Z" fill="#2F2E41"/>
<path d="M460.853 355.555L467.472 348.936L445.063 320.279L435.295 330.05L460.853 355.555Z" fill="#FFB6B6"/>
<path d="M454.155 349.795L464.097 338.588L468.633 343.114L485.636 339.995C486.476 339.841 487.343 339.959 488.111 340.332C488.879 340.705 489.507 341.314 489.904 342.069C490.302 342.824 490.447 343.686 490.319 344.53C490.191 345.373 489.796 346.154 489.193 346.757L476.604 359.349L469.948 357.042L473.587 362.367L468.841 367.114L454.155 349.795Z" fill="#2F2E41"/>
<path d="M265.966 301.022L267.097 327.301C268.429 358.237 302.53 376.961 328.972 360.808C329.459 360.511 329.948 360.202 330.439 359.883C330.439 359.883 340.463 357.194 340.159 352.934C339.854 348.675 342.303 346.602 344.471 347.764C346.638 348.925 375.013 308.692 375.013 308.692C375.013 308.692 433.967 338.073 446.973 344.989C446.973 344.989 459.201 325.887 458.314 326.088C457.428 326.288 385.381 275.907 385.381 275.907C385.381 275.907 373.644 264.039 359.084 271.875C358.781 273.026 359.04 273.066 359.04 273.066L310.944 312.221L304.148 299.327L265.966 301.022Z" fill="#2F2E41"/>
<path d="M311.314 268.168C311.222 269.382 311.049 270.589 310.796 271.779C310.45 273.503 309.891 275.177 309.133 276.764C309.133 276.764 309.133 278.536 305.739 284.47C302.345 290.404 306.588 287.861 309.133 292.269C311.678 296.668 309.133 294.642 306.307 297.474C305.494 298.298 304.916 299.324 304.634 300.447C304.352 301.569 304.376 302.747 304.704 303.857C304.704 303.857 268.253 303.882 261.465 301.339C254.677 298.796 253.133 284.47 259.216 283.054C265.291 281.638 257.375 280.231 253.803 276.967C250.231 273.704 257.375 268.363 257.375 268.363C257.375 268.363 254.431 263.285 254.677 246.238C254.712 244.67 254.856 243.106 255.11 241.558C255.599 238.639 256.334 235.767 257.307 232.971C258.647 229.101 260.24 225.324 262.076 221.662C263.06 219.67 264.07 217.771 265.037 216.025C265.19 215.754 265.334 215.491 265.487 215.228C267.328 211.973 269.008 209.311 270.119 207.607C270.976 206.285 271.494 205.539 271.494 205.539L277.671 194.807L298.289 204.462L297.118 220.255L300.673 232.166L302.311 237.65L303.575 241.88L305.527 248.433C305.527 248.433 304.992 248.459 305.629 249.332C308.559 253.225 310.459 257.794 311.152 262.616C311.397 264.456 311.451 266.317 311.314 268.168Z" fill="#A5B2D3"/>
<path d="M370.857 269.871L370.47 269.746L321.121 253.869L339.306 194.265C339.668 193.078 340.295 191.989 341.14 191.079C341.985 190.169 343.025 189.463 344.183 189.014C345.34 188.564 346.585 188.383 347.823 188.484C349.061 188.585 350.259 188.966 351.329 189.597L382.865 208.212C385.361 209.684 387.26 211.985 388.23 214.714C389.201 217.443 389.18 220.426 388.173 223.141L370.857 269.871Z" fill="#2F2E41"/>
<path d="M371.058 273.659L321.312 257.654L339.496 198.05C339.858 196.863 340.486 195.774 341.33 194.864C342.175 193.955 343.215 193.248 344.373 192.799C345.531 192.349 346.775 192.168 348.013 192.269C349.251 192.37 350.45 192.751 351.519 193.382L384.561 209.864C389.525 212.793 389.409 220.375 387.104 226.596L371.058 273.659Z" fill="#A5B2D3"/>
<path d="M366.077 277.973C364.931 278.619 363.664 279.02 362.355 279.15C361.046 279.28 359.725 279.136 358.474 278.729L326.678 268.499C324.238 267.702 322.207 265.984 321.018 263.712C319.829 261.44 319.577 258.793 320.315 256.337L336.256 204.086C336.574 203.043 337.098 202.073 337.797 201.234C338.496 200.395 339.355 199.704 340.324 199.201C341.294 198.698 342.354 198.394 343.443 198.306C344.532 198.218 345.627 198.348 346.665 198.689L379.616 209.498C381.186 210.013 382.636 210.837 383.882 211.922C385.128 213.006 386.144 214.329 386.87 215.812C387.595 217.296 388.016 218.909 388.107 220.558C388.198 222.206 387.957 223.856 387.399 225.41L370.355 272.885C369.589 275.041 368.07 276.848 366.077 277.973Z" fill="#3F3D56"/>
<path d="M297.124 194.989C309.702 194.989 319.898 184.802 319.898 172.236C319.898 159.669 309.702 149.482 297.124 149.482C284.546 149.482 274.35 159.669 274.35 172.236C274.35 184.802 284.546 194.989 297.124 194.989Z" fill="#FFB6B6"/>
<path d="M220.111 195.333C222.201 199.381 225.628 202.581 229.811 204.392C231.48 205.152 233.235 205.707 235.038 206.045C235.547 204.026 236.363 202.097 237.456 200.324C237.092 202.322 237.092 204.369 237.456 206.367C240.203 206.591 242.966 206.249 245.574 205.36C248.135 204.49 250.459 203.035 252.359 201.111C254.26 199.188 255.685 196.848 256.523 194.278C258.337 188.246 256.383 181.805 256.229 175.509C256.071 169.213 259.063 161.683 265.319 160.904C270.083 160.309 269.494 160.771 272.917 164.133C268.129 169.448 279.803 192.986 286.067 191.946C289.608 191.358 292.214 188.549 292.915 188.646C296.502 197.422 285.712 209.869 294.27 213.955L293.635 213.115C289.156 205.722 302.409 193.236 297.93 185.843C296.681 183.775 295.383 181.35 296.156 179.062C296.889 176.887 300.602 176.199 301.386 178.178C300.112 173.641 303.668 168.315 308.39 167.851C312.585 167.438 312.343 168.633 316.343 169.723C316.854 168.001 317.591 166.354 318.534 164.826C318.215 166.57 318.175 168.354 318.417 170.11C319.86 170.282 321.319 169.974 322.568 169.232C326.262 167.02 326.372 161.309 323.835 157.833C321.292 154.357 317.034 152.641 312.926 151.342C312.889 142.662 289.512 138.507 285.213 146.577C284.771 140.043 277.274 135.641 270.816 136.751C264.358 137.861 259.263 143.035 256.157 148.801C253.052 154.563 251.51 161.015 249.236 167.153C246.963 173.29 243.713 179.41 238.269 183.051C232.825 186.688 224.736 187.019 220.191 182.305C219.154 184.318 218.607 186.546 218.593 188.809C218.579 191.073 219.099 193.308 220.111 195.333Z" fill="#2F2E41"/>
<path d="M243.48 299.384C243.951 299.007 244.463 298.684 245.005 298.419C253.722 294.085 280.83 282.833 302.026 283.295C342.809 284.183 394.712 329.152 382.632 359.35C373.441 382.328 327.746 395.401 294.389 384.946C247.66 370.298 229.216 310.747 243.48 299.384Z" fill="#61606F"/>
<path d="M74.1713 464.924C60.8449 462.412 49.0486 402.429 75.2679 372.888C84.2511 362.766 95.4563 358.361 110.361 354.261C196.15 330.664 261.583 353.153 270.376 358.644C279.149 364.122 294.53 446.666 274.862 458.35C263.796 464.924 241.862 468.211 230.995 460.541C215.005 449.256 241.845 419.983 229.898 400.279C216.342 377.92 144.955 370.388 109.165 392.61C70.9812 416.318 149.742 479.168 74.1713 464.924Z" fill="#D4DDFA"/>
<path d="M163.269 362.94H112.358C99.7897 350.906 90.8036 339.309 97.9979 329.682C97.9979 326.915 99.0982 324.261 101.057 322.304C103.015 320.347 105.672 319.248 108.441 319.248H167.186C169.955 319.248 172.612 320.347 174.57 322.304C176.529 324.261 177.629 326.915 177.629 329.682C180.368 340.651 175.474 351.739 163.269 362.94Z" fill="black"/>
<path d="M154.126 306.111C153.643 306.134 153.165 306.007 152.756 305.748C152.348 305.49 152.029 305.112 151.842 304.667C151.656 304.221 151.611 303.729 151.713 303.257C151.816 302.785 152.062 302.355 152.417 302.027L152.579 301.386C152.557 301.334 152.536 301.283 152.514 301.232C152.028 300.083 151.212 299.104 150.17 298.417C149.129 297.73 147.907 297.366 146.659 297.371C145.41 297.375 144.191 297.749 143.155 298.443C142.118 299.138 141.31 300.123 140.832 301.275C138.921 305.873 136.488 310.478 135.889 315.34C135.626 317.489 135.737 319.667 136.218 321.778C131.73 311.997 129.4 301.366 129.385 290.607C129.384 287.907 129.534 285.209 129.835 282.526C130.083 280.326 130.428 278.142 130.869 275.974C133.274 264.209 138.438 253.181 145.938 243.797C149.567 241.819 152.503 238.776 154.348 235.079C155.017 233.75 155.489 232.332 155.751 230.868C155.342 230.921 154.207 224.691 154.516 224.309C153.946 223.444 152.924 223.014 152.301 222.17C149.202 217.971 144.932 218.704 142.702 224.41C137.94 226.811 137.894 230.793 140.816 234.623C142.675 237.06 142.931 240.357 144.562 242.966C144.394 243.18 144.219 243.388 144.052 243.603C140.984 247.544 138.31 251.776 136.069 256.238C136.614 251.239 135.964 246.182 134.171 241.484C132.354 237.105 128.949 233.417 125.95 229.631C122.348 225.085 114.962 227.069 114.327 232.833C114.321 232.889 114.315 232.945 114.309 233C114.755 233.251 115.191 233.518 115.617 233.8C116.153 234.157 116.568 234.669 116.809 235.266C117.049 235.864 117.103 236.52 116.963 237.149C116.824 237.777 116.498 238.349 116.027 238.79C115.557 239.23 114.964 239.518 114.327 239.616L114.262 239.626C114.421 241.23 114.701 242.819 115.101 244.381C111.254 259.245 119.56 264.659 131.419 264.902C131.681 265.036 131.936 265.17 132.198 265.298C129.946 271.673 128.533 278.315 127.996 285.054C127.691 289.03 127.709 293.025 128.049 296.998L128.029 296.857C127.17 292.439 124.811 288.452 121.35 285.571C116.211 281.352 108.949 279.799 103.404 276.408C102.815 276.03 102.13 275.829 101.43 275.827C100.729 275.825 100.043 276.024 99.4521 276.399C98.861 276.774 98.3896 277.31 98.0934 277.944C97.7973 278.578 97.6889 279.284 97.7808 279.977C97.7883 280.026 97.7958 280.076 97.8035 280.125C98.6301 280.461 99.4349 280.849 100.213 281.285C100.659 281.536 101.095 281.803 101.521 282.085C102.057 282.442 102.472 282.954 102.713 283.551C102.953 284.149 103.007 284.805 102.867 285.434C102.728 286.062 102.402 286.634 101.931 287.075C101.461 287.515 100.869 287.803 100.232 287.901L100.166 287.911C100.119 287.918 100.079 287.925 100.032 287.931C101.444 291.3 103.427 294.401 105.892 297.099C108.297 310.074 118.629 311.305 129.68 307.527H129.687C130.9 312.791 132.657 317.916 134.93 322.817H153.657C153.724 322.609 153.785 322.395 153.845 322.187C152.112 322.296 150.371 322.192 148.663 321.878C150.052 320.175 151.442 318.458 152.831 316.755C152.862 316.723 152.892 316.689 152.919 316.654C153.623 315.782 154.335 314.917 155.04 314.045L155.04 314.044C155.078 311.372 154.77 308.705 154.126 306.111Z" fill="#369B3B"/>
<path d="M218.002 360.215C218.312 361.118 218.902 361.9 219.685 362.449C220.468 362.997 221.405 363.283 222.361 363.266L241.038 362.785C242.001 362.767 242.932 362.437 243.692 361.846C244.452 361.254 245 360.433 245.255 359.505L247.898 331.269C248.835 331.693 249.856 331.903 250.885 331.882C252.691 331.837 254.405 331.077 255.65 329.769C256.895 328.461 257.569 326.713 257.524 324.908C257.478 323.104 256.717 321.392 255.408 320.148C254.099 318.904 252.349 318.231 250.544 318.276C250.132 318.275 249.722 318.318 249.32 318.403C248.882 317.931 248.35 317.554 247.758 317.299C247.167 317.044 246.528 316.916 245.883 316.922L217.154 317.663C216.915 317.672 216.678 317.702 216.445 317.751C215.815 317.869 215.217 318.119 214.693 318.487C214.168 318.854 213.728 319.33 213.402 319.881C213.077 320.433 212.873 321.048 212.805 321.684C212.738 322.321 212.807 322.965 213.009 323.573L218.002 360.215ZM248.44 329.352L250.32 322.623C250.534 321.846 250.539 321.026 250.335 320.246C250.426 320.246 250.506 320.203 250.598 320.202C251.887 320.176 253.134 320.661 254.066 321.552C254.998 322.443 255.538 323.667 255.568 324.955C255.598 326.243 255.116 327.491 254.227 328.424C253.338 329.358 252.115 329.901 250.826 329.935C249.992 329.961 249.167 329.759 248.44 329.352Z" fill="black"/>
<path d="M216.445 317.75C217.057 321.247 223.939 323.705 232.213 323.277C239.822 322.927 246.044 320.258 247.184 317.094C246.762 316.97 246.323 316.911 245.884 316.921L217.154 317.662C216.916 317.671 216.679 317.7 216.445 317.75Z" fill="white"/>
<path d="M1.00024 466.247L630 466.505C630.265 466.505 630.519 466.399 630.707 466.212C630.895 466.025 631 465.77 631 465.505C631 465.24 630.895 464.986 630.707 464.799C630.519 464.611 630.265 464.506 630 464.506L1.00024 464.248C0.734962 464.248 0.480548 464.353 0.292964 464.541C0.105381 464.728 0 464.982 0 465.247C0 465.512 0.105381 465.767 0.292964 465.954C0.480548 466.141 0.734962 466.247 1.00024 466.247Z" fill="#CACACA"/>
<path d="M353.787 242.905C352.076 242.968 350.457 243.695 349.275 244.931C348.093 246.168 347.44 247.816 347.455 249.526C347.464 249.874 347.502 250.22 347.567 250.561L327.827 262.205L330.217 274.291L355.532 255.42C356.928 255.038 358.158 254.204 359.029 253.05C359.901 251.896 360.366 250.486 360.352 249.041C360.335 248.218 360.157 247.407 359.827 246.653C359.497 245.899 359.022 245.217 358.428 244.647C357.834 244.077 357.134 243.629 356.367 243.329C355.601 243.029 354.782 242.883 353.959 242.9C353.901 242.901 353.844 242.903 353.787 242.905Z" fill="#FFB6B6"/>
<path d="M337.616 270.664C337.088 269.957 336.861 269.662 336.741 269.743C336.432 269.929 336.729 272.426 334.555 276.778C331.494 282.893 299.403 292.257 299.403 292.257L295.452 285.03L278.073 253.271L272.083 227.815C271.873 226.928 271.772 226.018 271.78 225.106C277.121 221.351 282.793 218.09 288.725 215.361C291.096 216.705 292.903 218.856 293.816 221.421L305.779 254.934L310.553 268.314C310.553 268.314 318.974 262.298 322.029 263.403C325.078 264.514 325.945 262.956 323.951 257.968C321.958 252.981 324.95 258.115 328.432 258.441C331.921 258.772 328.432 258.441 330.08 256.324C331.728 254.208 342.382 253.017 342.382 253.017L342.609 253.49L346.738 261.975L347.92 264.413C347.92 264.413 343.543 269.158 342.487 270.104C341.425 271.056 341.098 270.99 341.617 272.076C342.13 273.156 339.45 273.107 337.616 270.664Z" fill="#A5B2D3"/>
</g>
<defs>
<clipPath id="clip0_95_943">
<rect width="631" height="467" fill="white"/>
</clipPath>
</defs>
</svg>
