<svg width="20" height="20" viewBox="0 0 20 20" fill="none" xmlns="http://www.w3.org/2000/svg">
<path d="M16.9899 8.22186L10.7399 2.32343L10.7328 2.31718C10.532 2.13326 10.2696 2.03125 9.99728 2.03125C9.72497 2.03125 9.46254 2.13326 9.26173 2.31718L9.2547 2.32343L3.0047 8.22186C2.89415 8.32479 2.80612 8.44949 2.74615 8.58812C2.68618 8.72675 2.65558 8.87629 2.65626 9.02733V16.25C2.65626 16.5401 2.7715 16.8183 2.97661 17.0234C3.18173 17.2285 3.45993 17.3437 3.75001 17.3437H7.50001C7.79009 17.3437 8.06829 17.2285 8.27341 17.0234C8.47853 16.8183 8.59376 16.5401 8.59376 16.25V12.5C8.59376 12.4585 8.61022 12.4188 8.63953 12.3895C8.66883 12.3602 8.70857 12.3437 8.75001 12.3437H11.25C11.2915 12.3437 11.3312 12.3602 11.3605 12.3895C11.3898 12.4188 11.4063 12.4585 11.4063 12.5V16.25C11.4063 16.5401 11.5215 16.8183 11.7266 17.0234C11.9317 17.2285 12.2099 17.3437 12.5 17.3437H16.25C16.5401 17.3437 16.8183 17.2285 17.0234 17.0234C17.2285 16.8183 17.3438 16.5401 17.3438 16.25V9.02733C17.3437 8.87589 17.3123 8.7261 17.2514 8.58745C17.1904 8.44879 17.1014 8.3243 16.9899 8.22186ZM16.4063 16.25C16.4063 16.2914 16.3898 16.3312 16.3605 16.3605C16.3312 16.3898 16.2915 16.4062 16.25 16.4062H12.5C12.4586 16.4062 12.4188 16.3898 12.3895 16.3605C12.3602 16.3312 12.3438 16.2914 12.3438 16.25V12.5C12.3438 12.2099 12.2285 11.9317 12.0234 11.7266C11.8183 11.5215 11.5401 11.4062 11.25 11.4062H8.75001C8.45993 11.4062 8.18173 11.5215 7.97661 11.7266C7.7715 11.9317 7.65626 12.2099 7.65626 12.5V16.25C7.65626 16.2914 7.6398 16.3312 7.6105 16.3605C7.58119 16.3898 7.54145 16.4062 7.50001 16.4062H3.75001C3.70857 16.4062 3.66883 16.3898 3.63953 16.3605C3.61022 16.3312 3.59376 16.2914 3.59376 16.25V9.02733C3.59371 9.00559 3.59821 8.98407 3.60695 8.96416C3.61569 8.94425 3.6285 8.92639 3.64454 8.91171L3.65157 8.90546L9.89689 3.00858C9.92535 2.98374 9.96185 2.97006 9.99962 2.97006C10.0374 2.97006 10.0739 2.98374 10.1024 3.00858L16.3484 8.90624L16.3547 8.91249C16.3709 8.9271 16.3838 8.94493 16.3927 8.96484C16.4016 8.98476 16.4062 9.00631 16.4063 9.02811V16.25Z" fill="black"/>
</svg>
