<svg width="20" height="20" viewBox="0 0 20 20" fill="none" xmlns="http://www.w3.org/2000/svg">
<path d="M17.5 9.02748V16.2501C17.5 16.5817 17.3683 16.8996 17.1339 17.134C16.8995 17.3684 16.5815 17.5001 16.25 17.5001H13.125C12.7935 17.5001 12.4755 17.3684 12.2411 17.134C12.0067 16.8996 11.875 16.5817 11.875 16.2501V13.1251C11.875 12.9594 11.8092 12.8004 11.6919 12.6832C11.5747 12.566 11.4158 12.5001 11.25 12.5001H8.75C8.58424 12.5001 8.42527 12.566 8.30806 12.6832C8.19085 12.8004 8.125 12.9594 8.125 13.1251V16.2501C8.125 16.5817 7.9933 16.8996 7.75888 17.134C7.52446 17.3684 7.20652 17.5001 6.875 17.5001H3.75C3.41848 17.5001 3.10054 17.3684 2.86612 17.134C2.6317 16.8996 2.5 16.5817 2.5 16.2501V9.02748C2.49997 8.85448 2.53586 8.68336 2.60538 8.52494C2.67491 8.36653 2.77656 8.22427 2.90391 8.10717L9.15391 2.21029L9.1625 2.2017C9.39261 1.99243 9.69248 1.87646 10.0035 1.87646C10.3146 1.87646 10.6144 1.99243 10.8445 2.2017C10.8472 2.20476 10.8501 2.20763 10.8531 2.21029L17.1031 8.10717C17.2292 8.22489 17.3295 8.36742 17.3978 8.52581C17.4661 8.68419 17.5009 8.855 17.5 9.02748Z" fill="black"/>
</svg>
