<svg width="24" height="24" viewBox="0 0 24 24" fill="none" xmlns="http://www.w3.org/2000/svg">
<path d="M2 2H22V22H2V2ZM4 20H17.586L9 11.414L4 16.414V20ZM20 19.586V4H4V13.586L9 8.586L20 19.586ZM15.547 7C15.2818 7 15.0274 7.10536 14.8399 7.29289C14.6524 7.48043 14.547 7.73478 14.547 8C14.547 8.26522 14.6524 8.51957 14.8399 8.70711C15.0274 8.89464 15.2818 9 15.547 9C15.8122 9 16.0666 8.89464 16.2541 8.70711C16.4416 8.51957 16.547 8.26522 16.547 8C16.547 7.73478 16.4416 7.48043 16.2541 7.29289C16.0666 7.10536 15.8122 7 15.547 7ZM12.547 8C12.547 7.20435 12.8631 6.44129 13.4257 5.87868C13.9883 5.31607 14.7514 5 15.547 5C16.3426 5 17.1057 5.31607 17.6683 5.87868C18.2309 6.44129 18.547 7.20435 18.547 8C18.547 8.79565 18.2309 9.55871 17.6683 10.1213C17.1057 10.6839 16.3426 11 15.547 11C14.7514 11 13.9883 10.6839 13.4257 10.1213C12.8631 9.55871 12.547 8.79565 12.547 8Z" fill="black"/>
</svg>
