<svg width="24" height="24" viewBox="0 0 24 24" fill="none" xmlns="http://www.w3.org/2000/svg">
<path d="M12 14.2701L10.64 13.0001C9.06752 11.5413 7.11053 10.5628 5 10.1801V17.1301C7.61 17.4701 10 18.4701 12 19.9501C14 18.4701 16.39 17.4701 19 17.1301V10.1801C16.84 10.5701 14.91 11.5701 13.36 13.0001M19 8.15009C19.65 8.05009 20.32 8.00009 21 8.00009V19.0001C17.5 19.0001 14.36 20.3501 12 22.5401C9.64 20.3501 6.5 19.0001 3 19.0001V8.00009C3.68 8.00009 4.35 8.05009 5 8.15009C7.69 8.56009 10.1 9.78009 12 11.5401C13.9 9.78009 16.31 8.56009 19 8.15009ZM12 6.00009C12.27 6.00009 12.5 5.90009 12.71 5.71009C12.9 5.50009 13 5.27009 13 5.00009C13 4.73009 12.9 4.50009 12.71 4.29009C12.5 4.11009 12.27 4.00009 12 4.00009C11.73 4.00009 11.5 4.11009 11.29 4.29009C11.11 4.50009 11 4.74009 11 5.00009C11 5.26009 11.11 5.50009 11.29 5.71009C11.5 5.90009 11.74 6.00009 12 6.00009ZM14.12 7.12009C13.5577 7.68234 12.7952 7.99822 12 7.99822C11.2048 7.99822 10.4423 7.68234 9.88 7.12009C9.31774 6.55783 9.00187 5.79524 9.00187 5.00009C9.00187 4.20493 9.31774 3.44234 9.88 2.88009C10.1584 2.60168 10.4889 2.38084 10.8527 2.23017C11.2164 2.0795 11.6063 2.00195 12 2.00195C12.3937 2.00195 12.7836 2.0795 13.1473 2.23017C13.5111 2.38084 13.8416 2.60168 14.12 2.88009C14.3984 3.15849 14.6192 3.489 14.7699 3.85275C14.9206 4.2165 14.9981 4.60637 14.9981 5.00009C14.9981 5.39381 14.9206 5.78367 14.7699 6.14742C14.6192 6.51117 14.3984 6.84168 14.12 7.12009Z" fill="black"/>
</svg>
