<svg width="22" height="22" viewBox="0 0 22 22" fill="none" xmlns="http://www.w3.org/2000/svg">
<path d="M19.858 7.27033C19.3759 6.1199 18.6747 5.07423 17.7933 4.19162C16.9146 3.30747 15.8707 2.60452 14.721 2.12268C13.5433 1.62667 12.2779 1.37242 10.9999 1.37502H10.957C9.65717 1.38147 8.40034 1.63928 7.21655 2.14631C6.07674 2.63309 5.04269 3.33729 4.17221 4.21955C3.29937 5.10018 2.60616 6.14219 2.1312 7.28752C1.63816 8.47853 1.38834 9.75613 1.39643 11.0451C1.40288 12.5362 1.75952 14.0164 2.42553 15.3399V18.6055C2.42553 19.1512 2.86811 19.5938 3.41167 19.5938H6.67299C8.00261 20.2647 9.46985 20.6177 10.9591 20.625H11.0042C12.289 20.625 13.533 20.3758 14.706 19.8881C15.8499 19.412 16.8898 18.7173 17.7675 17.8428C18.6527 16.9641 19.3488 15.9371 19.8365 14.792C20.3414 13.6061 20.5992 12.3449 20.6056 11.043C20.6099 9.73459 20.3564 8.46486 19.858 7.27033ZM6.71166 12.0313C6.14448 12.0313 5.68256 11.5694 5.68256 11C5.68256 10.4307 6.14448 9.96877 6.71166 9.96877C7.27885 9.96877 7.74077 10.4307 7.74077 11C7.74077 11.5694 7.281 12.0313 6.71166 12.0313ZM10.9999 12.0313C10.4328 12.0313 9.97084 11.5694 9.97084 11C9.97084 10.4307 10.4328 9.96877 10.9999 9.96877C11.5671 9.96877 12.029 10.4307 12.029 11C12.029 11.5694 11.5671 12.0313 10.9999 12.0313ZM15.2882 12.0313C14.721 12.0313 14.2591 11.5694 14.2591 11C14.2591 10.4307 14.721 9.96877 15.2882 9.96877C15.8554 9.96877 16.3173 10.4307 16.3173 11C16.3173 11.5694 15.8554 12.0313 15.2882 12.0313Z" fill="black"/>
</svg>
