<svg width="22" height="22" viewBox="0 0 22 22" fill="none" xmlns="http://www.w3.org/2000/svg">
<path d="M9.96887 11C9.96887 11.2735 10.0775 11.5358 10.2709 11.7292C10.4643 11.9226 10.7266 12.0312 11.0001 12.0312C11.2736 12.0312 11.5359 11.9226 11.7293 11.7292C11.9227 11.5358 12.0314 11.2735 12.0314 11C12.0314 10.7265 11.9227 10.4642 11.7293 10.2708C11.5359 10.0774 11.2736 9.96875 11.0001 9.96875C10.7266 9.96875 10.4643 10.0774 10.2709 10.2708C10.0775 10.4642 9.96887 10.7265 9.96887 11ZM14.2657 11C14.2657 11.2735 14.3744 11.5358 14.5678 11.7292C14.7612 11.9226 15.0235 12.0312 15.297 12.0312C15.5705 12.0312 15.8328 11.9226 16.0262 11.7292C16.2196 11.5358 16.3282 11.2735 16.3282 11C16.3282 10.7265 16.2196 10.4642 16.0262 10.2708C15.8328 10.0774 15.5705 9.96875 15.297 9.96875C15.0235 9.96875 14.7612 10.0774 14.5678 10.2708C14.3744 10.4642 14.2657 10.7265 14.2657 11ZM5.672 11C5.672 11.2735 5.78065 11.5358 5.97404 11.7292C6.16744 11.9226 6.42974 12.0312 6.70325 12.0312C6.97675 12.0312 7.23905 11.9226 7.43245 11.7292C7.62585 11.5358 7.7345 11.2735 7.7345 11C7.7345 10.7265 7.62585 10.4642 7.43245 10.2708C7.23905 10.0774 6.97675 9.96875 6.70325 9.96875C6.42974 9.96875 6.16744 10.0774 5.97404 10.2708C5.78065 10.4642 5.672 10.7265 5.672 11ZM19.8775 7.27031C19.3919 6.1166 18.6958 5.08105 17.8085 4.1916C16.9274 3.3073 15.8814 2.60438 14.7298 2.12266C13.5482 1.62637 12.2935 1.375 11.0001 1.375H10.9572C9.6552 1.38145 8.39407 1.63926 7.20813 2.14629C6.06636 2.63296 5.03018 3.33712 4.15735 4.21953C3.27864 5.10684 2.58899 6.13809 2.11204 7.2875C1.6179 8.47773 1.36868 9.74316 1.37512 11.0451C1.38241 12.5371 1.7354 14.0072 2.40637 15.3398V18.6055C2.40637 18.8676 2.51049 19.119 2.69583 19.3043C2.88117 19.4896 3.13254 19.5938 3.39465 19.5938H6.66243C7.99509 20.2647 9.46513 20.6177 10.9572 20.625H11.0023C12.2892 20.625 13.5374 20.3758 14.7126 19.8881C15.8584 19.4121 16.9005 18.7174 17.7806 17.8428C18.6679 16.9641 19.3661 15.9371 19.8538 14.792C20.3609 13.6061 20.6187 12.3449 20.6251 11.043C20.6316 9.73457 20.3781 8.46484 19.8775 7.27031ZM16.6312 16.6805C15.1251 18.1715 13.1271 18.9922 11.0001 18.9922H10.9636C9.66809 18.9857 8.38118 18.6635 7.24465 18.0576L7.06418 17.9609H4.03918V14.9359L3.9425 14.7555C3.33665 13.6189 3.01438 12.332 3.00793 11.0365C2.99934 8.89453 3.8179 6.88359 5.31965 5.36895C6.81926 3.8543 8.82375 3.01641 10.9657 3.00781H11.0023C12.0765 3.00781 13.1185 3.21621 14.1003 3.62871C15.0585 4.03047 15.9179 4.6084 16.657 5.34746C17.3939 6.08437 17.9739 6.9459 18.3757 7.9041C18.7925 8.89668 19.0009 9.94941 18.9966 11.0365C18.9837 13.1764 18.1437 15.1809 16.6312 16.6805Z" fill="black"/>
</svg>
