<svg width="22" height="22" viewBox="0 0 22 22" fill="none" xmlns="http://www.w3.org/2000/svg">
<g clip-path="url(#clip0_204_935)">
<path d="M18.3333 16.5001C18.567 16.5003 18.7917 16.5898 18.9616 16.7502C19.1315 16.9106 19.2337 17.1298 19.2474 17.363C19.2611 17.5963 19.1852 17.8259 19.0353 18.0051C18.8853 18.1843 18.6726 18.2994 18.4406 18.327L18.3333 18.3334H3.66667C3.43303 18.3332 3.2083 18.2437 3.03841 18.0833C2.86852 17.9229 2.76628 17.7037 2.75259 17.4705C2.7389 17.2372 2.81479 17.0076 2.96474 16.8284C3.1147 16.6492 3.32741 16.5341 3.55942 16.5065L3.66667 16.5001H18.3333ZM18.3333 10.0834C18.5764 10.0834 18.8096 10.18 18.9815 10.3519C19.1534 10.5238 19.25 10.757 19.25 11.0001C19.25 11.2432 19.1534 11.4764 18.9815 11.6483C18.8096 11.8202 18.5764 11.9167 18.3333 11.9167H3.66667C3.42355 11.9167 3.19039 11.8202 3.01849 11.6483C2.84658 11.4764 2.75 11.2432 2.75 11.0001C2.75 10.757 2.84658 10.5238 3.01849 10.3519C3.19039 10.18 3.42355 10.0834 3.66667 10.0834H18.3333ZM18.3333 3.66675C18.5764 3.66675 18.8096 3.76333 18.9815 3.93523C19.1534 4.10714 19.25 4.3403 19.25 4.58341C19.25 4.82653 19.1534 5.05969 18.9815 5.2316C18.8096 5.4035 18.5764 5.50008 18.3333 5.50008H3.66667C3.42355 5.50008 3.19039 5.4035 3.01849 5.2316C2.84658 5.05969 2.75 4.82653 2.75 4.58341C2.75 4.3403 2.84658 4.10714 3.01849 3.93523C3.19039 3.76333 3.42355 3.66675 3.66667 3.66675H18.3333Z" fill="black"/>
</g>
<defs>
<clipPath id="clip0_204_935">
<rect width="22" height="22" fill="white"/>
</clipPath>
</defs>
</svg>
