<svg width="22" height="22" viewBox="0 0 22 22" fill="none" xmlns="http://www.w3.org/2000/svg">
<path d="M18.3334 16.0416C18.6865 16.0418 19.026 16.1778 19.2816 16.4215C19.5372 16.6651 19.6892 16.9978 19.7061 17.3505C19.7231 17.7032 19.6037 18.0489 19.3728 18.316C19.1418 18.5831 18.8169 18.7511 18.4654 18.7852L18.3334 18.7916H3.66675C3.31363 18.7914 2.97412 18.6554 2.71856 18.4117C2.463 18.168 2.31099 17.8354 2.29402 17.4827C2.27705 17.13 2.39642 16.7842 2.62741 16.5172C2.85839 16.2501 3.18328 16.0821 3.53475 16.048L3.66675 16.0416H18.3334ZM18.3334 9.62492C18.6981 9.62492 19.0478 9.76978 19.3057 10.0276C19.5635 10.2855 19.7084 10.6352 19.7084 10.9999C19.7084 11.3646 19.5635 11.7143 19.3057 11.9722C19.0478 12.2301 18.6981 12.3749 18.3334 12.3749H3.66675C3.30208 12.3749 2.95234 12.2301 2.69448 11.9722C2.43661 11.7143 2.29175 11.3646 2.29175 10.9999C2.29175 10.6352 2.43661 10.2855 2.69448 10.0276C2.95234 9.76978 3.30208 9.62492 3.66675 9.62492H18.3334ZM18.3334 3.20825C18.6981 3.20825 19.0478 3.35312 19.3057 3.61098C19.5635 3.86884 19.7084 4.21858 19.7084 4.58325C19.7084 4.94792 19.5635 5.29766 19.3057 5.55552C19.0478 5.81339 18.6981 5.95825 18.3334 5.95825H3.66675C3.30208 5.95825 2.95234 5.81339 2.69448 5.55552C2.43661 5.29766 2.29175 4.94792 2.29175 4.58325C2.29175 4.21858 2.43661 3.86884 2.69448 3.61098C2.95234 3.35312 3.30208 3.20825 3.66675 3.20825H18.3334Z" fill="black"/>
</svg>
