<svg width="22" height="22" viewBox="0 0 22 22" fill="none" xmlns="http://www.w3.org/2000/svg">
<g clip-path="url(#clip0_42_173)">
<path d="M11.0001 20.1667C12.0084 20.1667 12.8334 19.3417 12.8334 18.3334H9.16675C9.16675 19.3417 9.99175 20.1667 11.0001 20.1667ZM16.5001 14.6667V10.0834C16.5001 7.26925 15.0059 4.91341 12.3751 4.29008V3.66675C12.3751 2.90591 11.7609 2.29175 11.0001 2.29175C10.2392 2.29175 9.62508 2.90591 9.62508 3.66675V4.29008C7.00341 4.91341 5.50008 7.26008 5.50008 10.0834V14.6667L3.66675 16.5001V17.4167H18.3334V16.5001L16.5001 14.6667ZM14.6667 15.5834H7.33341V10.0834C7.33341 7.81008 8.71758 5.95841 11.0001 5.95841C13.2826 5.95841 14.6667 7.81008 14.6667 10.0834V15.5834Z" fill="black"/>
</g>
<defs>
<clipPath id="clip0_42_173">
<rect width="22" height="22" fill="white"/>
</clipPath>
</defs>
</svg>
