<svg width="22" height="22" viewBox="0 0 22 22" fill="none" xmlns="http://www.w3.org/2000/svg">
<path fill-rule="evenodd" clip-rule="evenodd" d="M10.0833 1.83325C8.76551 1.83339 7.4669 2.14923 6.2962 2.75431C5.12551 3.3594 4.1168 4.23613 3.35451 5.3111C2.59223 6.38608 2.09855 7.62803 1.91481 8.93298C1.73107 10.2379 1.86262 11.5679 2.29843 12.8116C2.73424 14.0553 3.46164 15.1764 4.41974 16.0813C5.37784 16.9861 6.53875 17.6482 7.8053 18.0122C9.07185 18.3763 10.4072 18.4316 11.6995 18.1736C12.9918 17.9156 14.2035 17.3517 15.2332 16.5293L18.6019 19.898C18.7748 20.065 19.0064 20.1574 19.2467 20.1553C19.4871 20.1532 19.717 20.0568 19.8869 19.8868C20.0569 19.7169 20.1533 19.487 20.1554 19.2466C20.1575 19.0063 20.0651 18.7747 19.8981 18.6018L16.5293 15.2331C17.4992 14.0193 18.1065 12.5563 18.2815 11.0125C18.4566 9.46877 18.1921 7.90696 17.5186 6.50687C16.8451 5.10679 15.7899 3.92534 14.4745 3.09852C13.1591 2.2717 11.637 1.83312 10.0833 1.83325ZM4.58334 10.0833C4.58334 9.36098 4.7256 8.64578 5.002 7.97849C5.2784 7.3112 5.68353 6.70489 6.19425 6.19416C6.70497 5.68344 7.31129 5.27832 7.97858 5.00191C8.64587 4.72551 9.36107 4.58325 10.0833 4.58325C10.8056 4.58325 11.5208 4.72551 12.1881 5.00191C12.8554 5.27832 13.4617 5.68344 13.9724 6.19416C14.4831 6.70489 14.8883 7.3112 15.1647 7.97849C15.4411 8.64578 15.5833 9.36098 15.5833 10.0833C15.5833 11.5419 15.0039 12.9409 13.9724 13.9723C12.941 15.0038 11.542 15.5833 10.0833 15.5833C8.62465 15.5833 7.2257 15.0038 6.19425 13.9723C5.1628 12.9409 4.58334 11.5419 4.58334 10.0833Z" fill="black"/>
</svg>
