<svg width="22" height="22" viewBox="0 0 22 22" fill="none" xmlns="http://www.w3.org/2000/svg">
<path d="M19.2499 19.2499L15.2689 15.2689M15.2689 15.2689C15.9498 14.5879 16.49 13.7794 16.8586 12.8897C17.2271 12 17.4168 11.0463 17.4168 10.0833C17.4168 9.12023 17.2271 8.1666 16.8586 7.27686C16.49 6.38712 15.9498 5.57868 15.2689 4.89769C14.5879 4.21671 13.7794 3.67653 12.8897 3.30799C12 2.93944 11.0463 2.74976 10.0833 2.74976C9.12023 2.74976 8.1666 2.93944 7.27686 3.30799C6.38712 3.67653 5.57868 4.21671 4.89769 4.89769C3.52239 6.273 2.74976 8.13831 2.74976 10.0833C2.74976 12.0282 3.52239 13.8936 4.89769 15.2689C6.273 16.6442 8.13831 17.4168 10.0833 17.4168C12.0282 17.4168 13.8936 16.6442 15.2689 15.2689Z" stroke="black" stroke-width="1.375" stroke-linecap="round" stroke-linejoin="round"/>
</svg>
