<svg width="40" height="34" viewBox="0 0 40 34" fill="none" xmlns="http://www.w3.org/2000/svg">
<path d="M35.8594 8.875C35.8594 9.26562 35.8594 9.57812 35.8594 9.96875C35.8594 20.8281 27.6562 33.25 12.5781 33.25C7.89062 33.25 3.59375 31.9219 0 29.5781C0.625 29.6562 1.25 29.7344 1.95312 29.7344C5.78125 29.7344 9.29688 28.4062 12.1094 26.2188C8.51562 26.1406 5.46875 23.7969 4.45312 20.5156C5 20.5938 5.46875 20.6719 6.01562 20.6719C6.71875 20.6719 7.5 20.5156 8.125 20.3594C4.375 19.5781 1.5625 16.2969 1.5625 12.3125V12.2344C2.65625 12.8594 3.98438 13.1719 5.3125 13.25C3.04688 11.7656 1.64062 9.26562 1.64062 6.45312C1.64062 4.89062 2.03125 3.48438 2.73438 2.3125C6.79688 7.23438 12.8906 10.5156 19.6875 10.9062C19.5312 10.2812 19.4531 9.65625 19.4531 9.03125C19.4531 4.5 23.125 0.828125 27.6562 0.828125C30 0.828125 32.1094 1.76562 33.6719 3.40625C35.4688 3.01562 37.2656 2.3125 38.8281 1.375C38.2031 3.32812 36.9531 4.89062 35.2344 5.90625C36.875 5.75 38.5156 5.28125 39.9219 4.65625C38.8281 6.29688 37.4219 7.70312 35.8594 8.875Z" fill="#0B7CE4"/>
</svg>
