<svg width="43" height="30" viewBox="0 0 43 30" fill="none" xmlns="http://www.w3.org/2000/svg">
<path d="M41.8906 4.76562C42.8281 8.04688 42.8281 15.0781 42.8281 15.0781C42.8281 15.0781 42.8281 22.0312 41.8906 25.3906C41.4219 27.2656 39.9375 28.6719 38.1406 29.1406C34.7812 30 21.5 30 21.5 30C21.5 30 8.14062 30 4.78125 29.1406C2.98438 28.6719 1.5 27.2656 1.03125 25.3906C0.09375 22.0312 0.09375 15.0781 0.09375 15.0781C0.09375 15.0781 0.09375 8.04688 1.03125 4.76562C1.5 2.89062 2.98438 1.40625 4.78125 0.9375C8.14062 0 21.5 0 21.5 0C21.5 0 34.7812 0 38.1406 0.9375C39.9375 1.40625 41.4219 2.89062 41.8906 4.76562ZM17.125 21.4062L28.2188 15.0781L17.125 8.75V21.4062Z" fill="#FF0000"/>
</svg>
